<svg xmlns="http://www.w3.org/2000/svg" version="1.0" width="227" height="320" preserveAspectRatio="xMidYMid meet" style=""><rect id="backgroundrect" width="100%" height="100%" x="0" y="0" fill="none" stroke="none"/>


<g class="currentLayer" style=""><title>Layer 1</title><rect fill="#ffffff" stroke="#ffffff" stroke-dashoffset="" fill-rule="nonzero" id="svg_4" x="-6.63378948677105" y="-1.7228203358383156" width="234.04224131378294" height="326.0608659535551" style="color: rgb(0, 0, 0);" class="" fill-opacity="1"/><g transform="translate(0,320) scale(0.10000000149011612,-0.10000000149011612) " fill="#07457a" stroke="#ffffff" id="svg_1" class="" fill-opacity="1" stroke-opacity="1">
<path d="M-140.845101712607,1596.8310889317447 l0,-1667.2535802458697 l1252.605502219972,0 l1252.605502219972,0 l0,1667.2535802458697 l0,1667.2535802458697 l-1252.605502219972,0 l-1252.605502219972,0 l0,-1667.2535802458697 zm1313.3044472614686,1402.577074381838 c0,-2.084066975307337 -32.004898294607216,-23.966770216034377 -71.73511686722307,-47.93354043206875 c-82.7712886929497,-51.05964089502976 -194.23662413278862,-158.38909012335762 -227.3451396099685,-221.9531328702314 c-13.243406190871951,-23.966770216034377 -33.10851547717988,-66.69014320983479 -43.04107012033384,-95.8670808641375 l-18.761492103735264,-52.10167438268343 l-396.1985685435859,0 l-396.1985685435859,0 l-3.310851547717988,211.53279799369471 l-2.2072343651453252,210.49076450604105 l579.3990208506478,0 c318.94536576349947,0 579.3990208506478,-2.084066975307337 579.3990208506478,-4.168133950614674 zm982.2192924896697,-209.44873101838738 l0,-213.61686496900205 l-324.4634516763628,0 c-349.846646875534,0 -380.7479279875686,-4.168133950614674 -455.79389640250963,-57.31184182095177 c-71.73511686722307,-53.143707870337096 -69.52788250207774,-7.29423441357568 -69.52788250207774,-1273.3649219127828 l0,-1138.9426020054598 l-215.2053506016692,0 l-215.2053506016692,0 l0,1159.7832717585331 c0,1282.743223301666 -2.2072343651453252,1233.7676493819436 71.73511686722307,1381.7364046287644 c81.66767151037703,162.5572240739723 306.8055767552002,319.90428070967624 491.10964624483483,343.8710509257106 c39.730218572615854,5.210167438268343 217.41258496681453,9.378301388883017 395.0949513610132,10.420334876536685 l322.2562173112175,1.0420334876536685 l0,-213.61686496900205 z" id="svg_2" fill="#07457a" fill-opacity="1" stroke="#ffffff" stroke-opacity="1"/>
</g></g></svg>